<?xml version="1.0" encoding="UTF-8" standalone="no"?>
<svg
   viewBox="0 0 16 16"
   version="1.1"
   id="svg5"
   sodipodi:docname="media-playback-start.svg"
   inkscape:version="1.2.2 (b0a8486541, 2022-12-01)"
   xmlns:inkscape="http://www.inkscape.org/namespaces/inkscape"
   xmlns:sodipodi="http://sodipodi.sourceforge.net/DTD/sodipodi-0.dtd"
   xmlns:xlink="http://www.w3.org/1999/xlink"
   xmlns="http://www.w3.org/2000/svg"
   xmlns:svg="http://www.w3.org/2000/svg"
   xmlns:rdf="http://www.w3.org/1999/02/22-rdf-syntax-ns#"
   xmlns:cc="http://creativecommons.org/ns#"
   xmlns:dc="http://purl.org/dc/elements/1.1/">
   <style id="current-color-scheme" type="text/css">
		.ColorScheme-Text { color: #dddddd; }
	</style>
  <g class="ColorScheme-Text"
     id="g4086">
    <path 
       style="display:none;fill:currentColor;fill-opacity:1;stroke:none"
       d="M 6,2 V 3 6 H 7 V 3 h 2 v 3 h 1 V 3 2 Z M 3.7070312,6 3,6.7070312 6.2929688,10 8,11.707031 9.7070312,10 13,6.7070312 12.292969,6 9,9.2929688 8,10.292969 7,9.2929688 Z M 2,12 v 2 h 1 11 v -1 -1 h -1 v 1 H 3 v -1 z"
       id="rect4099"
       class="ColorScheme-Text" />
    <path class="ColorScheme-Text"
       inkscape:connector-curvature="0"
       style="display:inline;fill:currentColor;fill-opacity:1;fill-rule:nonzero;stroke:none;stroke-width:0.527719;"
       d="m 4.4022299,1.3622319 9.6741031,5.8997977 c 0.566075,0.3642614 0.563702,1.0253854 0,1.3881889 L 4.4022299,14.550016 C 2.615101,15.639881 1.5070362,14.499346 1.5000001,13.855921 V 7.9561234 2.0563269 c 0,-1.08993196 1.7961068,-1.36868296 2.9022298,-0.694095 z M 3.5950292,7.956402 3.5950422,12.918617 11.302851,7.9564707 3.5950171,2.9942549 Z"
       id="path3787-74-1"
       sodipodi:nodetypes="sccsscssccccc" />
  </g>
</svg>
